<?xml version="1.0" standalone="no"?>
<!DOCTYPE svg PUBLIC "-//W3C//DTD SVG 20010904//EN"
 "http://www.w3.org/TR/2001/REC-SVG-20010904/DTD/svg10.dtd">
<svg version="1.0" xmlns="http://www.w3.org/2000/svg"
 width="117.000000pt" height="222.000000pt" viewBox="0 0 117.000000 222.000000"
 preserveAspectRatio="xMidYMid meet">

<g transform="translate(0.000000,222.000000) scale(0.100000,-0.100000)"
fill="#000000" stroke="none">
<path d="M197 1983 c-4 -3 -7 -326 -7 -717 1 -609 3 -714 15 -730 9 -12 15
-42 15 -75 l0 -56 401 -155 c221 -85 408 -156 415 -158 12 -3 14 123 14 771
l0 775 -47 18 c-27 9 -57 28 -69 41 -11 13 -27 25 -35 27 -8 1 -31 10 -53 19
-21 9 -44 17 -50 17 -7 0 -16 4 -22 8 -5 5 -108 46 -229 92 -121 45 -238 90
-260 100 -58 25 -81 31 -88 23z m407 -619 c21 -8 20 -23 -14 -214 -17 -91 -30
-171 -30 -177 0 -10 26 -13 95 -13 53 0 95 -4 95 -10 0 -5 -5 -32 -11 -60
l-11 -50 -163 0 c-90 0 -166 4 -169 8 -3 5 15 121 39 258 25 137 45 250 45
251 0 10 101 16 124 7z"/>
</g>
</svg>
